<svg width="29" height="27" viewBox="0 0 29 27" fill="none" xmlns="http://www.w3.org/2000/svg">
<path d="M23.6833 23.625L16.0708 16.5375C15.4667 16.9875 14.7719 17.3438 13.9865 17.6063C13.201 17.8688 12.3653 18 11.4792 18C9.28403 18 7.42622 17.2922 5.90573 15.8766C4.38524 14.4609 3.625 12.7312 3.625 10.6875C3.625 8.64375 4.38524 6.91406 5.90573 5.49844C7.42622 4.08281 9.28403 3.375 11.4792 3.375C13.6743 3.375 15.5321 4.08281 17.0526 5.49844C18.5731 6.91406 19.3333 8.64375 19.3333 10.6875C19.3333 11.5125 19.1924 12.2906 18.9104 13.0219C18.6285 13.7531 18.2458 14.4 17.7625 14.9625L25.375 22.05L23.6833 23.625ZM11.4792 15.75C12.9896 15.75 14.2734 15.2578 15.3307 14.2734C16.388 13.2891 16.9167 12.0938 16.9167 10.6875C16.9167 9.28125 16.388 8.08594 15.3307 7.10156C14.2734 6.11719 12.9896 5.625 11.4792 5.625C9.96875 5.625 8.6849 6.11719 7.6276 7.10156C6.57031 8.08594 6.04167 9.28125 6.04167 10.6875C6.04167 12.0938 6.57031 13.2891 7.6276 14.2734C8.6849 15.2578 9.96875 15.75 11.4792 15.75Z" fill="#404040"/>
</svg>
