<svg width="14" height="14" viewBox="0 0 14 14" fill="none" xmlns="http://www.w3.org/2000/svg">
<g clip-path="url(#clip0_281_9)">
<path fill-rule="evenodd" clip-rule="evenodd" d="M5.5 3.25C5.5 4.49264 4.49264 5.5 3.25 5.5C2.00736 5.5 1 4.49264 1 3.25C1 2.00736 2.00736 1 3.25 1C4.49264 1 5.5 2.00736 5.5 3.25ZM5.5 10.75C5.5 11.9926 4.49264 13 3.25 13C2.00736 13 1 11.9926 1 10.75C1 9.50736 2.00736 8.5 3.25 8.5C4.49264 8.5 5.5 9.50736 5.5 10.75Z" fill="#79EE8D"/>
<path fill-rule="evenodd" clip-rule="evenodd" d="M3.25 1.625C2.35254 1.625 1.625 2.35254 1.625 3.25C1.625 4.14746 2.35254 4.875 3.25 4.875C4.14746 4.875 4.875 4.14746 4.875 3.25C4.875 2.35254 4.14746 1.625 3.25 1.625ZM0.375 3.25C0.375 1.66218 1.66218 0.375 3.25 0.375C4.83782 0.375 6.125 1.66218 6.125 3.25C6.125 4.35616 5.5003 5.31641 4.58445 5.7972L5.38604 6.25742L12.6829 1.96141C12.9804 1.78629 13.3635 1.88545 13.5386 2.18291C13.7137 2.48036 13.6145 2.86346 13.3171 3.03859L6.63341 6.97359L8.80113 8.21816C9.10048 8.39003 9.20383 8.77202 9.03196 9.07137C8.86009 9.37072 8.4781 9.47406 8.17875 9.30219L5.39393 7.70333L4.5638 8.19207C5.4909 8.6692 6.125 9.63555 6.125 10.75C6.125 12.3378 4.83782 13.625 3.25 13.625C1.66218 13.625 0.375 12.3378 0.375 10.75C0.375 9.44195 1.24855 8.33793 2.44409 7.98949L4.14656 6.98716L2.44693 6.01134C1.24993 5.66382 0.375 4.55908 0.375 3.25ZM7.74023 10.375C7.39506 10.375 7.11523 10.6548 7.11523 11C7.11523 11.3452 7.39506 11.625 7.74023 11.625H9.24023C9.58541 11.625 9.86523 11.3452 9.86523 11C9.86523 10.6548 9.58541 10.375 9.24023 10.375H7.74023ZM11.7402 10.375C11.3951 10.375 11.1152 10.6548 11.1152 11C11.1152 11.3452 11.3951 11.625 11.7402 11.625H13.2402C13.5854 11.625 13.8652 11.3452 13.8652 11C13.8652 10.6548 13.5854 10.375 13.2402 10.375H11.7402ZM1.625 10.75C1.625 9.85254 2.35254 9.125 3.25 9.125C4.14746 9.125 4.875 9.85254 4.875 10.75C4.875 11.6475 4.14746 12.375 3.25 12.375C2.35254 12.375 1.625 11.6475 1.625 10.75Z" fill="#0C098C"/>
</g>
<defs>
<clipPath id="clip0_281_9">
<rect width="14" height="14" fill="white"/>
</clipPath>
</defs>
</svg>
