<svg width="25" height="24" viewBox="0 0 25 24" fill="none" xmlns="http://www.w3.org/2000/svg">
<g clip-path="url(#clip0_110_199)">
<path d="M11.4583 4H4.16668C3.61414 4 3.08424 4.21071 2.69354 4.58578C2.30284 4.96086 2.08334 5.46957 2.08334 6V20C2.08334 20.5304 2.30284 21.0391 2.69354 21.4142C3.08424 21.7893 3.61414 22 4.16668 22H18.75C19.3025 22 19.8324 21.7893 20.2231 21.4142C20.6139 21.0391 20.8333 20.5304 20.8333 20V13M19.2708 2.5C19.6852 2.10217 20.2473 1.87868 20.8333 1.87868C21.4194 1.87868 21.9814 2.10217 22.3958 2.5C22.8102 2.89782 23.0431 3.43739 23.0431 4C23.0431 4.56261 22.8102 5.10217 22.3958 5.5L12.5 15L8.33334 16L9.37501 12L19.2708 2.5Z" stroke="#C5C5C5" stroke-width="3" stroke-linecap="round" stroke-linejoin="round"/>
</g>
<defs>
<clipPath id="clip0_110_199">
<rect width="25" height="24" fill="white"/>
</clipPath>
</defs>
</svg>
