<svg width="14" height="14" viewBox="0 0 14 14" fill="none" xmlns="http://www.w3.org/2000/svg">
<g clip-path="url(#clip0_281_13)">
<path fill-rule="evenodd" clip-rule="evenodd" d="M12.7071 5.2929C12.5196 5.10536 12.2652 5 12 5H10C9.73481 5 9.48045 4.89465 9.29292 4.70711C9.10538 4.51957 9.00002 4.26522 9.00002 4V2C9.00002 1.46957 8.78931 0.96086 8.41424 0.585787C8.03917 0.210714 7.53046 0 7.00002 0C6.46959 0 5.96088 0.210714 5.58581 0.585787C5.21074 0.96086 5.00003 1.46957 5.00003 2V4C5.00003 4.26522 4.89467 4.51957 4.70713 4.70711C4.5196 4.89465 4.26524 5 4.00003 5H2C1.73478 5 1.48043 5.10536 1.29289 5.2929C1.10536 5.48043 1 5.73479 1 6V8.00049C1 8.27663 1.22386 8.50049 1.5 8.50049H12.5C12.7761 8.50049 13 8.27663 13 8.00049V6C13 5.73479 12.8946 5.48043 12.7071 5.2929ZM1.00938 12.9353L1.5 9.50098H12.5L12.9906 12.9353C12.9969 12.9791 13 13.0232 13 13.0674C13 13.583 12.582 14.001 12.0664 14.001H9.25V12.001C9.25 11.5868 8.91421 11.251 8.5 11.251C8.08579 11.251 7.75 11.5868 7.75 12.001V14.001H1.93365C1.41801 14.001 1 13.583 1 13.0674C1 13.0232 1.00314 12.9791 1.00938 12.9353Z" fill="black"/>
</g>
<defs>
<clipPath id="clip0_281_13">
<rect width="14" height="14" fill="white"/>
</clipPath>
</defs>
</svg>
